simulation
nRows=74
nColumns=15
endheader
time  TH_x TH_y TH_z SC_y  SC_z  SC_x  AC_y  AC_z  AC_x  GH_y  GH_z  GH_yy  EL_x  PS_y
0.500000  0.000000  0.000000  0.000000  -49.132931  16.749638  15.979909  49.994077  14.095823  -0.195140  17.315304  52.695156  -30.265060  17.063333  116.640308
0.500356  0.000000  0.000000  0.000000  -38.805348  2.288255  15.979909  59.840253  0.079977  -5.258004  29.832443  62.501454  -21.630949  22.142808  124.196415
0.500712  0.000000  0.000000  0.000000  -20.289971  8.306844  15.979909  53.011960  34.787538  -0.792762  21.398223  46.611667  -18.527419  23.166270  125.405472
0.501068  0.000000  0.000000  0.000000  -37.048877  3.962256  15.979909  63.163421  26.049241  -2.307720  18.905071  56.290407  -21.748223  13.080011  119.056811
0.501423  0.000000  0.000000  0.000000  -28.300104  -12.272913  15.979909  64.357945  43.270897  -8.254482  13.548152  49.933386  -25.039779  23.309044  119.529415
0.501779  0.000000  0.000000  0.000000  -14.855641  -3.496194  15.979909  61.151892  36.933654  -0.370224  15.975131  49.831031  -29.280208  12.284258  126.498772
0.502135  0.000000  0.000000  0.000000  -49.846862  2.494098  15.979909  48.965808  34.108561  -6.598538  20.701706  44.298095  -28.374781  18.943354  131.113583
0.502491  0.000000  0.000000  0.000000  -29.445308  3.108688  15.979909  51.498145  26.894600  -13.382336  23.158011  55.703524  -14.693189  9.866652  125.649503
0.502847  0.000000  0.000000  0.000000  -48.103343  5.154000  15.979909  59.106313  23.987093  -2.487191  21.367298  54.379883  -21.937690  14.065064  133.498287
0.503203  0.000000  0.000000  0.000000  -15.148675  -2.471105  15.979909  47.665285  37.108935  -7.316351  26.817055  63.172885  -23.032812  24.266141  116.140135
0.503559  0.000000  0.000000  0.000000  -44.645393  0.578513  15.979909  61.402049  36.396194  -5.412135  19.301223  47.869638  -23.579047  26.992548  122.239649
0.503915  0.000000  0.000000  0.000000  -52.142610  0.000905  15.979909  46.750253  25.640620  -13.840984  23.374068  57.113671  -30.162683  11.463298  122.310665
0.504270  0.000000  0.000000  0.000000  -25.396137  -2.770177  15.979909  59.045023  40.332737  -8.619952  19.558199  44.686178  -26.543574  14.978005  126.697538
0.504626  0.000000  0.000000  0.000000  -25.334140  1.866975  15.979909  48.816118  39.013380  -9.186329  25.187116  45.707845  -21.684290  13.394419  126.564957
0.504982  0.000000  0.000000  0.000000  -51.941053  14.403253  15.979909  54.871414  11.455094  5.022914  19.929434  47.430243  -30.113908  14.585165  125.556233
0.505338  0.000000  0.000000  0.000000  -41.455306  11.302580  15.979909  59.122669  16.531296  2.333056  25.602409  55.026702  -29.256966  22.511727  124.043425
0.505694  0.000000  0.000000  0.000000  -32.904814  3.497355  23.479909  56.930022  12.436958  -9.184144  21.508771  53.827461  -21.274933  18.210635  124.425202
0.506050  0.000000  0.000000  0.000000  -22.507481  -2.996316  23.479909  48.250668  29.079632  -16.873765  13.820946  61.400650  -12.647922  10.785649  121.225480
0.506406  0.000000  0.000000  0.000000  -34.447860  2.156933  23.479909  63.376322  -4.686521  -1.850901  15.422849  49.826610  -16.167736  23.595027  123.606943
0.506762  0.000000  0.000000  0.000000  -49.268087  10.954278  23.479909  59.678931  -2.439720  -2.927593  14.672963  59.305423  -11.302110  18.147255  115.330418
0.507117  0.000000  0.000000  0.000000  -33.852798  -3.718841  23.479909  64.831202  -6.739757  -11.822248  30.754540  46.147706  -19.966049  16.907112  132.518406
0.507473  0.000000  0.000000  0.000000  -34.998322  20.450597  23.479909  51.247161  -11.925066  0.701892  31.074803  56.055929  -20.059005  21.212180  119.430371
0.507829  0.000000  0.000000  0.000000  -45.531118  14.891744  23.479909  52.326673  -0.623061  -7.998079  18.522554  43.871236  -21.362658  15.872375  131.147508
0.508185  0.000000  0.000000  0.000000  -47.737021  17.771253  23.479909  53.228208  -4.004393  -1.717808  26.166819  52.568621  -23.331806  11.424719  120.110199
0.508541  0.000000  0.000000  0.000000  -37.663597  6.511653  23.479909  65.304530  -1.638578  -2.571305  14.859949  60.779257  -28.897802  19.048414  122.103184
0.508897  0.000000  0.000000  0.000000  -50.382664  15.570627  23.479909  47.944613  14.082264  -2.666607  13.578954  44.373711  -26.088938  17.854012  122.773504
0.509253  0.000000  0.000000  0.000000  -30.841670  12.504485  23.479909  54.280205  -0.723069  -5.458309  14.993916  46.092878  -29.223514  9.464961  116.793703
0.509609  0.000000  0.000000  0.000000  -35.399225  2.952588  23.479909  52.476306  29.715845  -4.104900  21.770709  50.889255  -21.852944  10.212371  122.345082
0.509964  0.000000  0.000000  0.000000  -31.928701  -2.567984  23.479909  57.559494  32.854137  -8.269181  28.669371  62.199823  -27.620218  9.085679  125.843996
0.510320  0.000000  0.000000  0.000000  -15.731793  16.864411  23.479909  54.575403  -0.824522  -4.341773  16.420440  50.979849  -20.188155  25.026892  133.549016
0.510676  0.000000  0.000000  0.000000  -26.433622  1.013858  23.479909  49.710543  20.586687  -18.894167  27.906946  47.345285  -14.678301  18.580258  127.695913
0.511032  0.000000  0.000000  0.000000  -32.904814  3.497355  30.979909  57.593800  6.125579  -13.291899  21.508771  53.827461  -21.274933  18.210635  124.425202
0.511388  0.000000  0.000000  0.000000  -33.218026  -2.287853  30.979909  48.345877  30.543259  -7.254265  21.808274  50.921417  -15.917303  11.643066  117.078588
0.511744  0.000000  0.000000  0.000000  -18.738305  8.062108  30.979909  60.045440  22.486869  -7.913746  22.325338  45.444565  -24.303936  21.885703  129.880298
0.512100  0.000000  0.000000  0.000000  -31.668748  11.922966  30.979909  62.724115  13.292018  -5.346100  13.385858  60.326956  -13.162910  14.308945  127.413227
0.512456  0.000000  0.000000  0.000000  -31.464232  6.631681  30.979909  54.509364  23.019302  -4.586314  20.719071  44.761458  -13.497860  8.725162  115.004294
0.512811  0.000000  0.000000  0.000000  -26.419634  8.752868  30.979909  53.122332  18.217694  -15.097504  15.797241  45.240841  -20.810715  27.304509  122.716184
0.513167  0.000000  0.000000  0.000000  -22.687022  -3.361679  30.979909  67.404566  17.229113  -14.143617  17.789665  58.564430  -11.774035  23.159056  130.234726
0.513523  0.000000  0.000000  0.000000  -16.640394  3.377645  30.979909  66.206859  -4.589939  -8.076653  16.625528  52.948385  -16.211924  23.748551  117.463926
0.513879  0.000000  0.000000  0.000000  -42.001470  -0.008097  30.979909  59.984313  28.555045  -13.492971  12.271102  50.899281  -14.144516  13.061376  121.636265
0.514235  0.000000  0.000000  0.000000  -14.540481  9.349067  30.979909  50.195722  -11.741336  -17.385162  13.582580  63.256428  -25.742461  17.925481  126.260593
0.514591  0.000000  0.000000  0.000000  -20.173175  4.233353  30.979909  53.002717  -8.471994  -17.730880  26.181710  57.223385  -19.076031  15.981897  117.183833
0.514947  0.000000  0.000000  0.000000  -46.569826  21.968122  30.979909  51.103789  -1.395677  -4.807143  20.769552  47.462353  -16.096836  15.664582  120.022811
0.515302  0.000000  0.000000  0.000000  -24.133251  -1.910545  30.979909  66.135919  27.332230  -9.131968  24.478107  63.694364  -30.143134  26.710450  129.529396
0.515658  0.000000  0.000000  0.000000  -47.847242  5.268441  30.979909  48.998676  18.510776  -22.359168  28.619234  54.297477  -13.760640  24.380012  130.187448
0.516014  0.000000  0.000000  0.000000  -19.913701  -5.177004  30.979909  60.872767  -11.875336  -19.262827  23.465469  61.912024  -16.053674  24.174843  119.473248
0.516370  0.000000  0.000000  0.000000  -33.040621  3.505874  10.506829  54.731994  23.704949  -1.420812  21.537905  54.307170  -21.782639  18.108462  124.402421
0.516726  0.000000  0.000000  0.000000  -33.040621  3.505874  0.506829  51.573659  31.717667  5.348295  21.537905  54.307170  -21.782639  18.108462  124.402421
0.517082  0.000000  0.000000  0.000000  -48.420921  -3.119411  0.506829  45.206887  52.535138  3.759011  18.721238  49.860392  -26.934715  13.029528  126.339560
0.517438  0.000000  0.000000  0.000000  -51.176810  10.250381  0.506829  45.383889  28.333664  6.899236  29.071400  54.848581  -18.424189  22.998727  121.618277
0.517794  0.000000  0.000000  0.000000  -16.366647  9.914589  0.506829  60.145903  23.570338  10.769088  22.949276  49.330767  -15.794188  19.182851  125.109987
0.518149  0.000000  0.000000  0.000000  -31.037704  -8.605807  0.506829  60.679444  19.401830  -4.277712  30.986571  51.804224  -14.884971  25.170659  132.744989
0.518505  0.000000  0.000000  0.000000  -44.888658  5.256549  0.506829  47.670138  18.208172  -4.461849  20.716711  51.452683  -18.034437  14.261959  124.628763
0.518861  0.000000  0.000000  0.000000  -31.329146  8.392279  0.506829  48.314027  43.542942  9.257760  27.824352  57.082575  -14.819074  8.963436  126.269681
0.519217  0.000000  0.000000  0.000000  -44.825226  8.356827  0.506829  55.081564  24.310050  5.246466  28.353153  60.274936  -29.855429  22.707482  133.721097
0.519573  0.000000  0.000000  0.000000  -15.173622  1.771209  0.506829  43.642578  49.049638  6.932904  12.484906  56.717843  -19.040719  15.713262  131.780287
0.519929  0.000000  0.000000  0.000000  -15.982401  6.705316  0.506829  54.119408  39.996118  13.247652  22.736562  48.792235  -22.931868  20.832388  124.779727
0.520285  0.000000  0.000000  0.000000  -16.516306  -7.893452  0.506829  47.936535  52.953890  6.941398  24.737712  45.025219  -23.270845  24.080295  119.486544
0.520641  0.000000  0.000000  0.000000  -21.761385  7.025680  0.506829  59.790075  19.806003  4.708285  12.817899  54.148295  -11.850525  26.540891  118.574535
0.520996  0.000000  0.000000  0.000000  -48.461730  5.999803  0.506829  53.038749  7.908580  5.581257  30.085528  47.079360  -19.706190  14.686533  126.334217
0.521352  0.000000  0.000000  0.000000  -33.040621  3.505874  8.006829  54.061805  25.737766  0.181376  21.537905  54.307170  -21.782639  18.108462  124.402421
0.521708  0.000000  0.000000  0.000000  -19.141245  14.169110  8.006829  47.155718  32.825900  3.069981  18.920607  61.350083  -18.804622  20.222709  132.677104
0.522064  0.000000  0.000000  0.000000  -18.436055  7.250674  8.006829  52.336792  14.368224  -6.711820  12.298252  64.284535  -12.086939  22.106255  116.479981
0.522420  0.000000  0.000000  0.000000  -47.162939  2.283815  8.006829  54.091279  23.621435  -8.638856  25.476279  59.075403  -29.437799  17.237739  133.715806
0.522776  0.000000  0.000000  0.000000  -50.929841  1.243213  8.006829  51.535867  31.554404  -8.899082  28.844225  51.559082  -25.875887  10.693276  114.504877
0.523132  0.000000  0.000000  0.000000  -14.389946  -14.116824  8.006829  57.752481  47.918250  -3.920220  12.631627  61.011397  -26.876832  22.293463  133.011500
0.523488  0.000000  0.000000  0.000000  -15.050880  -13.107608  8.006829  51.880963  45.679880  -2.654090  30.310157  50.318533  -17.359581  16.314969  114.916920
0.523843  0.000000  0.000000  0.000000  -48.976522  -2.529884  8.006829  55.936932  41.468161  -1.184878  16.830265  47.912746  -30.016499  26.165287  129.013288
0.524199  0.000000  0.000000  0.000000  -22.434886  -2.056568  8.006829  61.342380  47.510559  9.026643  22.533889  63.963217  -23.110031  11.529212  122.882202
0.524555  0.000000  0.000000  0.000000  -39.920160  12.526004  8.006829  54.428088  22.771123  7.745807  12.948765  57.842789  -31.303956  19.979884  122.253409
0.524911  0.000000  0.000000  0.000000  -51.083111  14.941886  8.006829  51.745667  12.486570  7.961787  25.541632  62.668217  -19.503219  16.911578  119.662463
0.525267  0.000000  0.000000  0.000000  -18.356479  0.420421  8.006829  61.962365  43.309370  7.009921  22.685012  57.400176  -15.134889  23.490398  123.207237
0.525623  0.000000  0.000000  0.000000  -49.750824  -13.150861  8.006829  50.413473  46.308761  -9.634437  15.789465  51.953350  -26.939184  20.267888  130.086186
0.525979  0.000000  0.000000  0.000000  -24.540335  18.373830  8.006829  53.628567  16.095685  7.376326  30.405271  62.602146  -29.868769  10.917596  117.407302
